# xmcd
#
# Track frame offsets: 
#        150
#        9021
#        12814
#        32372
#        59127
#        77222
#        96997
#        113363
#        129536
#        149258
#        167665
#        188328
#        207015
#        226438
#        244249
#        287788
#
# Disc length: 4440 seconds
#
# Revision: 7
# Processed by: cddbd v1.5.2PL0 Copyright (c) Steve Scherf et al.
# Submitted via: ExactAudioCopyFreeDBPlugin 1.0
#
DISCID=c9115610
DTITLE=이수영 - 5th This Time
DYEAR=2003
DGENRE=Ballad
TTITLE0=Intro
TTITLE1=Irish Whistle Blow
TTITLE2=덩그러니
TTITLE3=우미공주
TTITLE4=여전히 입술을 깨물죠
TTITLE5=다시
TTITLE6=Hate U
TTITLE7=Bring Me Love
TTITLE8=Wanna Bigman
TTITLE9=Sunshine
TTITLE10=가난한 기도
TTITLE11=모르지(내 맘을 알리가 없지...)
TTITLE12=그래
TTITLE13=틀
TTITLE14=우미공주(Orchestra Version)
TTITLE15=Data Track
EXTD=YEAR: 2003
EXTT0=
EXTT1=
EXTT2=
EXTT3=
EXTT4=
EXTT5=
EXTT6=
EXTT7=
EXTT8=
EXTT9=
EXTT10=
EXTT11=
EXTT12=
EXTT13=
EXTT14=
EXTT15=
PLAYORDER=
